<svg width="1600" height="900" viewBox="0 0 1600 900" fill="none" xmlns="http://www.w3.org/2000/svg">
  <rect width="1600" height="900" fill="#0B1326"/>
  <circle cx="266" cy="204" r="320" fill="#00F0FF" fill-opacity="0.16"/>
  <circle cx="1290" cy="164" r="254" fill="#3131C0" fill-opacity="0.22"/>
  <circle cx="924" cy="742" r="312" fill="#6900B3" fill-opacity="0.18"/>
  <rect x="172" y="182" width="1256" height="536" rx="28" fill="#131B2E" stroke="#3B494B" stroke-opacity="0.25"/>
  <rect x="220" y="248" width="404" height="36" rx="8" fill="#2D3449"/>
  <rect x="220" y="314" width="528" height="20" rx="6" fill="#849495" fill-opacity="0.5"/>
  <rect x="220" y="352" width="476" height="20" rx="6" fill="#849495" fill-opacity="0.3"/>
  <rect x="220" y="430" width="260" height="214" rx="18" fill="#060E20" stroke="#00F0FF" stroke-opacity="0.55"/>
  <path d="M282 588L334 506L378 546L448 458" stroke="#00F0FF" stroke-width="10" stroke-linecap="round" stroke-linejoin="round"/>
  <rect x="530" y="430" width="362" height="214" rx="18" fill="#171F33"/>
  <rect x="580" y="478" width="130" height="16" rx="6" fill="#C0C1FF" fill-opacity="0.82"/>
  <rect x="580" y="516" width="238" height="16" rx="6" fill="#849495" fill-opacity="0.45"/>
  <rect x="580" y="554" width="192" height="16" rx="6" fill="#849495" fill-opacity="0.35"/>
  <rect x="948" y="430" width="430" height="214" rx="18" fill="#171F33"/>
  <path d="M1006 598H1314" stroke="#00F0FF" stroke-opacity="0.5" stroke-width="8" stroke-linecap="round"/>
  <path d="M1006 550H1248" stroke="#C0C1FF" stroke-opacity="0.8" stroke-width="8" stroke-linecap="round"/>
  <path d="M1006 502H1178" stroke="#EACFFF" stroke-opacity="0.7" stroke-width="8" stroke-linecap="round"/>
  <text x="220" y="140" fill="#DBFCFF" font-family="Manrope, sans-serif" font-size="74" font-weight="800">Spring Boot Modernization</text>
</svg>